<svg xmlns="http://www.w3.org/2000/svg" width="12.144" height="12.144" viewBox="0 0 12.144 12.144"><defs><style>.a{fill:#e61e4e;}.b{fill:#fff;}</style></defs><g transform="translate(-0.01 0)"><path class="a" d="M11.6,6.072l.533-1.39a.38.38,0,0,0-.115-.431l-1.155-.937-.234-1.47a.379.379,0,0,0-.316-.315L8.839,1.3,7.9.14a.38.38,0,0,0-.43-.115L6.082.558,4.692.025a.379.379,0,0,0-.43.115L3.326,1.3l-1.47.234a.38.38,0,0,0-.315.315l-.234,1.47L.151,4.252a.38.38,0,0,0-.115.43l.533,1.39L.036,7.462a.379.379,0,0,0,.115.43l1.156.936.234,1.47a.379.379,0,0,0,.315.316l1.47.234L4.262,12a.378.378,0,0,0,.431.115l1.389-.532,1.39.533A.38.38,0,0,0,7.9,12l.936-1.155,1.47-.234a.38.38,0,0,0,.316-.316l.234-1.47,1.155-.936a.379.379,0,0,0,.115-.43Z" transform="translate(0 0)"/><g transform="translate(3.805 3.036)"><path class="b" d="M161.16,130.312a1.138,1.138,0,1,1,1.138-1.138A1.14,1.14,0,0,1,161.16,130.312Zm0-1.518a.379.379,0,1,0,.379.379A.38.38,0,0,0,161.16,128.794Z" transform="translate(-160.022 -128.035)"/><path class="b" d="M257.16,290.312a1.138,1.138,0,1,1,1.138-1.138A1.14,1.14,0,0,1,257.16,290.312Zm0-1.518a.379.379,0,1,0,.379.379A.381.381,0,0,0,257.16,288.794Z" transform="translate(-253.745 -284.24)"/><path class="b" d="M160.415,134.089a.379.379,0,0,1-.308-.6l3.795-5.313a.38.38,0,0,1,.618.441l-3.795,5.313A.381.381,0,0,1,160.415,134.089Z" transform="translate(-160.036 -128.017)"/></g></g></svg>