<?xml version="1.0" encoding="utf-8"?>
<!-- Generator: Adobe Illustrator 24.0.0, SVG Export Plug-In . SVG Version: 6.00 Build 0)  -->
<svg version="1.1" id="Layer_1" xmlns="http://www.w3.org/2000/svg" xmlns:xlink="http://www.w3.org/1999/xlink" x="0px" y="0px"
	 viewBox="0 0 169.8 78.2" style="enable-background:new 0 0 169.8 78.2;" xml:space="preserve">
<style type="text/css">
	.st0{enable-background:new    ;}
</style>
<g transform="translate(-94.723 -341.178)">
	<g transform="translate(94.723 341.178)">
		<path d="M16.3,0h-13C1.5,0,0,1.5,0,3.3v13c0,1.8,1.5,3.3,3.3,3.3c1.8,0,3.3-1.5,3.3-3.3c0,0,0,0,0,0V6.5h9.8
			c1.8,0,3.2-1.5,3.2-3.3C19.5,1.4,18,0,16.3,0L16.3,0z"/>
	</g>
	<g transform="translate(244.985 399.81)">
		<path d="M16.3,0C14.5,0,13,1.5,13,3.3c0,0,0,0,0,0V13H3.3c-1.8,0-3.2,1.5-3.2,3.3c0,1.8,1.4,3.2,3.2,3.2h13c1.8,0,3.3-1.5,3.3-3.3
			v-13C19.5,1.5,18.1,0,16.3,0z"/>
	</g>
	<g transform="translate(244.985 341.178)">
		<path d="M16.3,0h-13C1.5,0,0,1.5,0.1,3.3c0,1.8,1.4,3.2,3.2,3.2H13v9.8c0,1.8,1.5,3.3,3.3,3.3c1.8,0,3.3-1.5,3.3-3.3c0,0,0,0,0,0
			v-13C19.5,1.5,18.1,0,16.3,0z"/>
	</g>
	<g transform="translate(94.723 399.81)">
		<path d="M16.3,13H6.5V3.3C6.5,1.5,5.1,0,3.3,0C1.5,0,0,1.5,0,3.3v13c0,1.8,1.5,3.3,3.3,3.3h13c1.8,0,3.2-1.5,3.2-3.3
			C19.5,14.5,18,13.1,16.3,13L16.3,13z"/>
	</g>
	<g class="st0">
		<path d="M119.4,375.7v-13.1c0-1.3-0.1-2.2-0.5-2.7c-0.3-0.5-0.7-0.8-1.3-0.8h-0.3c-0.6,0-1,0.3-1.3,0.8c-0.3,0.5-0.4,1.4-0.4,2.7
			v6.3c0,2.5,0.5,4.5,1.5,6.3c1,1.8,2.1,3.4,3.3,5.1c1.2,1.6,2.3,3.3,3.3,5.1c1,1.8,1.5,3.9,1.5,6.4v8.1c0,1.3-0.2,2.5-0.6,3.5
			c-0.4,1-0.9,1.7-1.6,2.3c-0.7,0.6-1.4,1-2.2,1.3c-0.9,0.3-1.7,0.5-2.6,0.5h-1.1c-0.9,0-1.8-0.1-2.6-0.4c-0.9-0.3-1.6-0.7-2.3-1.3
			c-0.7-0.6-1.3-1.4-1.7-2.4c-0.4-0.9-0.6-2.1-0.6-3.5v-14h5.3V399c0,1.3,0.2,2.2,0.6,2.7c0.4,0.5,0.9,0.8,1.4,0.8h0.3
			c0.5,0,1-0.3,1.4-0.8c0.4-0.5,0.6-1.4,0.6-2.7v-6.3c0-2.4-0.5-4.5-1.5-6.3c-1-1.8-2.1-3.4-3.3-5.1c-1.2-1.6-2.3-3.3-3.3-5.1
			c-1-1.8-1.5-3.9-1.5-6.4v-8.1c0-1.4,0.2-2.5,0.6-3.5c0.4-0.9,1-1.7,1.6-2.3c0.7-0.6,1.4-1,2.3-1.3c0.8-0.3,1.7-0.5,2.5-0.5h0.8
			c0.9,0,1.8,0.2,2.6,0.5c0.8,0.3,1.6,0.8,2.2,1.3c0.7,0.6,1.2,1.4,1.6,2.3c0.4,1,0.6,2.1,0.6,3.5v14H119.4z"/>
		<path d="M138.3,407.5c-0.9,0-1.7-0.2-2.5-0.5c-0.9-0.3-1.6-0.8-2.3-1.3c-0.7-0.6-1.2-1.4-1.6-2.3c-0.4-0.9-0.6-2.1-0.6-3.5v-38.2
			c0-1.4,0.2-2.5,0.6-3.5c0.4-0.9,0.9-1.7,1.6-2.3c0.7-0.6,1.4-1,2.3-1.3c0.8-0.3,1.7-0.5,2.5-0.5h1.4c0.8,0,1.7,0.2,2.6,0.5
			c0.8,0.3,1.6,0.8,2.3,1.3c0.7,0.6,1.2,1.4,1.6,2.3c0.4,1,0.6,2.1,0.6,3.5v14h-5.9v-13.2c0-1.3-0.1-2.2-0.5-2.7
			c-0.3-0.5-0.7-0.8-1.3-0.8h-0.3c-0.6,0-1,0.3-1.3,0.8c-0.3,0.5-0.4,1.4-0.4,2.7V399c0,1.3,0.1,2.2,0.4,2.7
			c0.3,0.5,0.7,0.8,1.3,0.8h0.3c0.5,0,1-0.3,1.3-0.8c0.3-0.5,0.5-1.4,0.5-2.7v-13.2h5.9v14.1c0,1.3-0.2,2.5-0.6,3.5
			c-0.4,1-0.9,1.7-1.6,2.3c-0.7,0.6-1.4,1-2.3,1.3c-0.9,0.3-1.7,0.5-2.6,0.5H138.3z"/>
		<path d="M162.1,393.1H158l-1.1,13.9h-5l4.6-52.4h7.5l5,52.4h-5.6L162.1,393.1z M158.4,388.8h3.4l-1.6-18h-0.2L158.4,388.8z"/>
		<path d="M185.2,407l-6.2-34.3h-0.1V407H174v-52.4h6.6l5.9,33.6v-33.6h5.3V407H185.2z"/>
	</g>
	<g class="st0">
		<path d="M206.8,392.1h-5.5l-1.4,14.9h-3.1l5.1-52.4h4.5l5.2,52.4h-3.4L206.8,392.1z M201.6,389.5h4.9l-2.4-24.9H204L201.6,389.5z"
			/>
		<path d="M224.4,354.6c1.6,0,3,0.6,4.2,1.7c1.2,1.2,1.8,2.9,1.8,5.1v17.3c0,2.1-0.5,3.6-1.5,4.5c-1,0.9-2.3,1.4-3.9,1.4h-4V407
			h-3.5v-52.4H224.4z M226.8,361.9c0-1.6-0.3-2.7-0.9-3.4c-0.6-0.7-1.2-1-1.9-1h-3.3v24.2h3.8c1.5,0,2.3-1.3,2.3-4V361.9z"/>
		<path d="M244.2,354.6c1.6,0,3,0.6,4.2,1.7c1.2,1.2,1.8,2.9,1.8,5.1v17.3c0,2.1-0.5,3.6-1.5,4.5c-1,0.9-2.3,1.4-3.9,1.4h-4V407
			h-3.5v-52.4H244.2z M246.7,361.9c0-1.6-0.3-2.7-0.9-3.4c-0.6-0.7-1.2-1-1.9-1h-3.3v24.2h3.8c1.5,0,2.3-1.3,2.3-4V361.9z"/>
	</g>
</g>
</svg>
